<svg width="272" height="78" viewBox="0 0 272 78" fill="none" xmlns="http://www.w3.org/2000/svg">
<path d="M44.3428 0.915423C47.6051 -0.305141 51.2168 -0.305141 54.4791 0.915423L70.7659 7.00795C73.4953 8.02871 75.2929 10.5783 75.2929 13.4163V49.0285C75.2917 49.3656 75.2649 49.7022 75.2129 50.0355C74.855 45.9461 73.2435 42.0553 70.5871 38.8667V13.4209C70.5872 12.9578 70.4429 12.5055 70.1732 12.1238C69.9035 11.7421 69.5211 11.449 69.0765 11.2832L52.7897 5.19072C50.6149 4.37701 48.207 4.37701 46.0322 5.19072L29.7407 11.2787C29.2962 11.4455 28.9143 11.7396 28.6454 12.1221C28.3766 12.5046 28.2334 12.9575 28.2348 13.4209V18.456C26.6724 18.2646 25.0915 18.2646 23.529 18.456V13.4209C23.5292 12.0328 23.9619 10.6774 24.7701 9.53332C25.5783 8.38929 26.7239 7.51039 28.056 7.01252L44.3381 0.92L44.3428 0.915423ZM49.8815 31.6344C49.1483 30.8655 48.2436 30.2704 47.2369 29.895L30.9501 23.8024C27.6878 22.5819 24.076 22.5819 20.8138 23.8024L4.52698 29.895C3.1949 30.3928 2.04923 31.2717 1.24107 32.4158C0.432899 33.5598 0.000188903 34.9152 0 36.3033V58.1833C0.000188903 59.5714 0.432899 60.9268 1.24107 62.0709C2.04923 63.2149 3.1949 64.0938 4.52698 64.5917L20.8091 70.6842C24.0727 71.9059 27.6864 71.9059 30.9501 70.6842L40.0982 67.2603C38.8369 66.1774 37.7122 64.9528 36.7476 63.6121L29.2607 66.4135C27.0859 67.2272 24.678 67.2272 22.5032 66.4135L6.21166 60.321C5.76797 60.1544 5.38658 59.861 5.11776 59.4794C4.84894 59.0978 4.70531 58.6459 4.70581 58.1833V36.3033C4.70531 35.8407 4.84894 35.3888 5.11776 35.0072C5.38658 34.6256 5.76797 34.3322 6.21166 34.1657L22.5032 28.0732C24.678 27.2594 27.0859 27.2594 29.2607 28.0732L44.1499 33.6439C45.95 32.707 47.8808 32.03 49.8815 31.6344ZM40.9264 35.7083C40.5268 35.6491 40.1182 35.6917 39.7405 35.8319L25.8819 41.0226L12.0186 35.8364C11.4358 35.6185 10.7878 35.6347 10.2173 35.8815C9.64673 36.1283 9.20035 36.5855 8.97632 37.1524C8.7523 37.7194 8.76898 38.3497 9.0227 38.9046C9.27642 39.4596 9.7464 39.8938 10.3292 40.1117L23.529 45.0416V56.4393C23.529 57.0463 23.7769 57.6285 24.2182 58.0577C24.6594 58.4869 25.2579 58.728 25.8819 58.728C26.506 58.728 27.1044 58.4869 27.5457 58.0577C27.9869 57.6285 28.2348 57.0463 28.2348 56.4393V45.0416L35.2747 42.405C36.6509 39.8081 38.5771 37.5241 40.9264 35.7037V35.7083ZM63.2696 12.9448C63.5596 12.828 63.8708 12.7689 64.1848 12.7709C64.4987 12.7729 64.8091 12.836 65.0976 12.9565C65.3861 13.077 65.6469 13.2524 65.8646 13.4724C66.0823 13.6925 66.2526 13.9526 66.3653 14.2377C66.4781 14.5227 66.531 14.8268 66.5211 15.132C66.5111 15.4372 66.4385 15.7375 66.3075 16.015C66.1764 16.2925 65.9896 16.5417 65.758 16.7479C65.5264 16.9541 65.2547 17.1131 64.9589 17.2156L51.9427 22.0859C50.3115 22.6962 48.5057 22.6962 46.8745 22.0859L33.8583 17.2201C33.276 17.0016 32.8069 16.5671 32.5541 16.0121C32.3012 15.4571 32.2854 14.8272 32.5101 14.2608C32.7347 13.6945 33.1814 13.2382 33.752 12.9922C34.3225 12.7463 34.9701 12.7309 35.5524 12.9494L48.5639 17.8152C49.109 18.0198 49.7129 18.0198 50.258 17.8152L63.2696 12.9448ZM67.3071 61.4195C69.8008 58.1757 70.9388 54.1335 70.492 50.1065C70.0453 46.0794 68.047 42.3664 64.8993 39.7148C61.7516 37.0631 57.6881 35.6696 53.5267 35.8147C49.3654 35.9598 45.4149 37.6327 42.4705 40.4968C39.5261 43.3609 37.8062 47.2035 37.657 51.2514C37.5079 55.2992 38.9405 59.2518 41.6665 62.3136C44.3925 65.3754 48.2097 67.3192 52.3497 67.7538C56.4897 68.1883 60.6453 67.0814 63.9801 64.6558L75.9799 76.3281C76.4211 76.7579 77.0198 76.9996 77.6441 77C78.2685 77.0004 78.8675 76.7596 79.3093 76.3304C79.7511 75.9013 79.9996 75.319 80 74.7116C80.0004 74.1043 79.7528 73.5217 79.3116 73.0919L67.3118 61.4195H67.3071ZM65.8813 51.8161C65.8813 54.8512 64.6418 57.7619 62.4355 59.9079C60.2293 62.054 57.2369 63.2597 54.1168 63.2597C50.9966 63.2597 48.0043 62.054 45.798 59.9079C43.5917 57.7619 42.3522 54.8512 42.3522 51.8161C42.3522 48.7811 43.5917 45.8704 45.798 43.7244C48.0043 41.5783 50.9966 40.3726 54.1168 40.3726C57.2369 40.3726 60.2293 41.5783 62.4355 43.7244C64.6418 45.8704 65.8813 48.7811 65.8813 51.8161Z" fill="#5D5FEF"/>
<path d="M89 26.7436H91.4615V9.10256H89V6.84615H96.3846V9.10256H93.9231V26.7436H96.3846V29H89V26.7436ZM103.767 19.1538V26.7436H106.228V29H98.8438V26.7436H101.305V9.10256H98.8438V6.84615H108.69C111.343 6.84615 113.271 7.33846 114.475 8.32308C115.678 9.30769 116.28 10.7573 116.28 12.6718C116.28 14.8051 115.569 16.4188 114.146 17.5128C112.751 18.6068 110.755 19.1538 108.157 19.1538H103.767ZM108.28 16.8974C110.003 16.8974 111.316 16.5829 112.218 15.9538C113.148 15.2974 113.613 14.2855 113.613 12.9179C113.613 11.5778 113.203 10.6068 112.382 10.0051C111.562 9.40342 110.263 9.10256 108.485 9.10256H103.767V16.8974H108.28ZM130.47 17.2256C132.056 17.6359 133.191 18.3197 133.875 19.2769C134.586 20.2068 134.942 21.3556 134.942 22.7231C134.942 24.7744 134.217 26.3333 132.767 27.4C131.318 28.4667 129.102 29 126.121 29H118.531V26.7436H120.993V9.10256H118.531V6.84615H126.039C128.911 6.84615 130.976 7.27009 132.234 8.11795C133.492 8.96581 134.121 10.347 134.121 12.2615C134.121 13.4376 133.847 14.4359 133.3 15.2564C132.753 16.0496 131.81 16.665 130.47 17.1026V17.2256ZM126.285 26.7436C128.282 26.7436 129.772 26.4291 130.757 25.8C131.769 25.1436 132.275 24.1179 132.275 22.7231C132.275 21.4103 131.837 20.3846 130.962 19.6462C130.114 18.9077 128.706 18.5385 126.736 18.5385H123.454V26.7436H126.285ZM126.244 16.2821C127.967 16.2821 129.266 15.9949 130.142 15.4205C131.017 14.8188 131.454 13.8615 131.454 12.5487C131.454 11.2632 131.058 10.3744 130.265 9.88205C129.471 9.36239 128.008 9.10256 125.875 9.10256H123.454V16.2821H126.244ZM108.692 65.7436V68H101.308V65.7436H103.072L94.3333 56.8821L103.441 48.1026H101.308V45.8462H108.692V48.1026H106.477L97.5744 56.6769L106.518 65.7436H108.692ZM89 65.7436H91.4615V48.1026H89V45.8462H96.3846V48.1026H93.9231V65.7436H96.3846V68H89V65.7436ZM120.264 65.7436C122.042 65.7436 123.792 65.1829 125.515 64.0615V66.4821C123.737 67.494 121.878 68 119.936 68C117.474 68 115.532 67.2342 114.11 65.7026C112.688 64.1436 111.977 62.1197 111.977 59.6308C111.977 56.841 112.674 54.6667 114.069 53.1077C115.491 51.5487 117.351 50.7692 119.649 50.7692C121.645 50.7692 123.19 51.453 124.284 52.8205C125.378 54.1607 125.925 56.0342 125.925 58.441V59.7128H114.643C114.725 61.6 115.204 63.0769 116.079 64.1436C116.982 65.2103 118.377 65.7436 120.264 65.7436ZM123.464 57.4564C123.327 54.5026 121.96 53.0256 119.361 53.0256C117.994 53.0256 116.927 53.4222 116.161 54.2154C115.423 54.9812 114.958 56.0615 114.767 57.4564H123.464ZM128.375 65.7436H130.837V45.8462H128.375V43.3846H133.298V53.1077H133.339C134.898 51.5487 136.703 50.7692 138.754 50.7692C140.396 50.7692 141.599 51.2342 142.365 52.1641C143.158 53.094 143.554 54.3795 143.554 56.0205V65.7436H146.016V68H138.631V65.7436H141.093V56.3077C141.093 55.0769 140.819 54.2291 140.272 53.7641C139.725 53.2718 139.001 53.0256 138.098 53.0256C136.266 53.0256 134.666 53.8735 133.298 55.5692V65.7436H135.76V68H128.375V65.7436ZM148.062 65.7436H150.524V53.0256H148.062V50.7692H152.986V65.7436H155.447V68H148.062V65.7436ZM149.704 46.4615C149.704 45.8325 149.868 45.3402 150.196 44.9846C150.551 44.6291 151.003 44.4513 151.55 44.4513C152.097 44.4513 152.534 44.6291 152.863 44.9846C153.218 45.3402 153.396 45.7915 153.396 46.3385C153.396 46.9402 153.218 47.4188 152.863 47.7744C152.534 48.1299 152.097 48.3077 151.55 48.3077C151.003 48.3077 150.551 48.1299 150.196 47.7744C149.868 47.4188 149.704 46.9812 149.704 46.4615ZM157.906 65.7436H160.368V45.641H157.906V43.3846H162.829V65.7436H165.291V68H157.906V65.7436ZM168.571 52.2051C170.622 51.2479 172.714 50.7692 174.847 50.7692C176.707 50.7692 178.102 51.1932 179.032 52.041C179.989 52.8889 180.468 54.2564 180.468 56.1436V65.7436H182.929V68H178.171L178.006 65.4974H177.883C176.406 67.1658 174.656 68 172.632 68C170.991 68 169.733 67.5897 168.858 66.7692C167.982 65.9214 167.545 64.759 167.545 63.2821C167.545 59.6171 170.458 57.7846 176.283 57.7846H178.006V56.0615C178.006 55.0769 177.719 54.3248 177.145 53.8051C176.598 53.2855 175.709 53.0256 174.478 53.0256C172.673 53.0256 170.704 53.5043 168.571 54.4615V52.2051ZM175.873 60.041C172.099 60.041 170.212 61.0667 170.212 63.1179C170.212 63.9932 170.458 64.6496 170.95 65.0872C171.47 65.5248 172.208 65.7436 173.165 65.7436C174.916 65.7436 176.529 64.9094 178.006 63.241V60.041H175.873ZM184.969 65.7436H187.43V53.0256H184.969V50.7692H189.769L189.892 53.1897H189.933C191.492 51.5761 193.297 50.7692 195.348 50.7692C196.989 50.7692 198.193 51.2342 198.958 52.1641C199.752 53.094 200.148 54.3795 200.148 56.0205V65.7436H202.61V68H195.225V65.7436H197.687V56.3077C197.687 55.0769 197.413 54.2291 196.866 53.7641C196.319 53.2718 195.594 53.0256 194.692 53.0256C192.859 53.0256 191.259 53.9009 189.892 55.6513V65.7436H192.353V68H184.969V65.7436ZM216.964 67.3026V66.1128H216.882C215.569 67.3709 214.065 68 212.369 68C210.372 68 208.718 67.2205 207.405 65.6615C206.119 64.1026 205.477 62.1333 205.477 59.7538C205.477 57.0462 206.188 54.8718 207.61 53.2308C209.032 51.5897 211.056 50.7692 213.682 50.7692C215.378 50.7692 217.292 51.0838 219.425 51.7128V67.3026C219.425 70.1744 218.837 72.2393 217.661 73.4974C216.485 74.7556 214.598 75.3846 212 75.3846C210.359 75.3846 208.731 75.1521 207.118 74.6872V72.3077C208.622 72.8547 210.249 73.1282 212 73.1282C213.805 73.1282 215.077 72.7316 215.815 71.9385C216.581 71.1726 216.964 69.6274 216.964 67.3026ZM216.964 53.4359C215.843 53.1624 214.68 53.0256 213.477 53.0256C211.672 53.0256 210.331 53.559 209.456 54.6256C208.581 55.665 208.143 57.2513 208.143 59.3846C208.143 61.4906 208.567 63.0769 209.415 64.1436C210.263 65.2103 211.453 65.7436 212.984 65.7436C214.516 65.7436 215.843 65.1556 216.964 63.9795V53.4359ZM225.164 52.2051C227.216 51.2479 229.308 50.7692 231.441 50.7692C233.301 50.7692 234.696 51.1932 235.626 52.041C236.583 52.8889 237.062 54.2564 237.062 56.1436V65.7436H239.523V68H234.764L234.6 65.4974H234.477C233 67.1658 231.25 68 229.226 68C227.585 68 226.327 67.5897 225.451 66.7692C224.576 65.9214 224.139 64.759 224.139 63.2821C224.139 59.6171 227.051 57.7846 232.877 57.7846H234.6V56.0615C234.6 55.0769 234.313 54.3248 233.739 53.8051C233.192 53.2855 232.303 53.0256 231.072 53.0256C229.267 53.0256 227.298 53.5043 225.164 54.4615V52.2051ZM232.467 60.041C228.692 60.041 226.805 61.0667 226.805 63.1179C226.805 63.9932 227.051 64.6496 227.544 65.0872C228.063 65.5248 228.802 65.7436 229.759 65.7436C231.51 65.7436 233.123 64.9094 234.6 63.241V60.041H232.467ZM241.562 65.7436H244.024V53.0256H241.562V50.7692H246.363L246.486 53.1897H246.527C248.086 51.5761 249.891 50.7692 251.942 50.7692C253.583 50.7692 254.786 51.2342 255.552 52.1641C256.345 53.094 256.742 54.3795 256.742 56.0205V65.7436H259.204V68H251.819V65.7436H254.28V56.3077C254.28 55.0769 254.007 54.2291 253.46 53.7641C252.913 53.2718 252.188 53.0256 251.286 53.0256C249.453 53.0256 247.853 53.9009 246.486 55.6513V65.7436H248.947V68H241.562V65.7436Z" fill="#5D5FEF"/>
</svg>
